<svg id="Layer_1" data-name="Layer 1" xmlns="http://www.w3.org/2000/svg" viewBox="0 0 121.94 121.41"><defs><style>.cls-1{fill:#ecb32d;}.cls-2{fill:#63c1a0;}.cls-3{fill:#e01a59;}.cls-4{fill:#331433;}.cls-5{fill:#d62027;}.cls-6{fill:#89d3df;}.cls-7{fill:#258b74;}.cls-8{fill:#819c3c;}</style></defs><title>icon-slack</title><path class="cls-1" d="M79,7.51a10.88,10.88,0,0,0-20.7,6.7l28.1,86.4a10.84,10.84,0,0,0,13.2,6.7c5.8-1.7,9.3-7.8,7.4-13.4C107,93.71,79,7.51,79,7.51Z"/><path class="cls-2" d="M35.53,21.61a10.88,10.88,0,0,0-20.7,6.7l28.1,86.4a10.84,10.84,0,0,0,13.2,6.7c5.8-1.7,9.3-7.8,7.4-13.4C63.53,107.81,35.53,21.61,35.53,21.61Z"/><path class="cls-3" d="M114.43,79a10.88,10.88,0,1,0-6.7-20.7l-86.5,28.2a10.84,10.84,0,0,0-6.7,13.2c1.7,5.8,7.8,9.3,13.4,7.4C28.13,107.11,114.43,79,114.43,79Z"/><path class="cls-4" d="M39.23,103.51c5.6-1.8,12.9-4.2,20.7-6.7-1.8-5.6-4.2-12.9-6.7-20.7l-20.7,6.7Z"/><path class="cls-5" d="M82.83,89.31c7.8-2.5,15.1-4.9,20.7-6.7-1.8-5.6-4.2-12.9-6.7-20.7l-20.7,6.7Z"/><path class="cls-6" d="M100.23,35.51a10.88,10.88,0,0,0-6.7-20.7L7.13,42.91a10.84,10.84,0,0,0-6.7,13.2c1.7,5.8,7.8,9.3,13.4,7.4C14,63.51,100.23,35.51,100.23,35.51Z"/><path class="cls-7" d="M25.13,59.91c5.6-1.8,12.9-4.2,20.7-6.7-2.5-7.8-4.9-15.1-6.7-20.7l-20.7,6.7Z"/><path class="cls-8" d="M68.63,45.81c7.8-2.5,15.1-4.9,20.7-6.7-2.5-7.8-4.9-15.1-6.7-20.7l-20.7,6.7Z"/></svg>