<svg id="レイヤー_1" data-name="レイヤー 1" xmlns="http://www.w3.org/2000/svg" viewBox="0 0 389 495"><defs><style>.cls-1{fill:#030000;}.cls-2{fill:#b92221;}.cls-3{fill:#fff;stroke:#030000;stroke-miterlimit:10;}.cls-4{fill:#ea5b18;}</style></defs><title>profIcon</title><ellipse class="cls-1" cx="194.82" cy="181.71" rx="194.54" ry="85.31"/><path class="cls-1" d="M285.46,14.86S256.55,0,195.63,0s-91.45,14.86-91.45,14.86c-17.64,7.35-35.66,16-35.66,35.66v68.36a35.77,35.77,0,0,0,35.66,35.66H285.46a35.77,35.77,0,0,0,35.66-35.66V50.52C321.13,30.91,309.6,26.73,285.46,14.86Z"/><path class="cls-2" d="M194.82,93c81.66,0,126.31,23.78,126.31,23.78V88.54c0-19.62-49-32.69-126.31-32.69S68.51,68.93,68.51,88.54v28.23S113.15,93,194.82,93Z"/><path class="cls-3" d="M381.09,308.69c0,102.88-83.4,185.62-186.27,186.27C92.69,495.61,9.25,412.18,8.55,308.69A183.82,183.82,0,0,1,67.62,172.37c33.36-31,78.14-42.51,127.2-42.51s93.79,11.56,127.07,42.62A185.76,185.76,0,0,1,381.09,308.69Z"/><path class="cls-1" d="M289.39,217.39a5.09,5.09,0,1,0-10.19,0,84.39,84.39,0,1,1-168.78,0,5.09,5.09,0,1,0-10.19,0,94.57,94.57,0,1,0,189.15,0Z"/><path class="cls-1" d="M155.76,182.35l-24.49,6.56a25.35,25.35,0,0,0,49-13.12Z"/><path class="cls-1" d="M233.88,182.35l-24.49-6.56a25.35,25.35,0,0,0,49,13.12Z"/><path class="cls-4" d="M143,218.52c2.8-8.48,41.34-2.42,52.61-1.09,7.9.93,12,9,9.53,18.16-1.63,6.05-11.28,10.54-17.3,7.9C187.81,243.48,139.94,227.67,143,218.52Z"/></svg>