<svg id="レイヤー_1" data-name="レイヤー 1" xmlns="http://www.w3.org/2000/svg" viewBox="0 0 255 249"><defs><style>.cls-1{fill:#191313;fill-rule:evenodd;}</style></defs><title>icon-github</title><path class="cls-1" d="M127.6.08A127.4,127.4,0,0,0,87.34,248.35c6.37,1.17,8.69-2.76,8.69-6.14,0-3-.11-11-.17-21.67C60.43,228.25,53,203.47,53,203.47c-5.79-14.72-14.14-18.63-14.14-18.63-11.57-7.9.88-7.74.88-7.74,12.78.9,19.51,13.13,19.51,13.13C70.56,209.69,89,204.07,96.27,200.8c1.16-8.23,4.45-13.85,8.09-17-28.29-3.21-58-14.14-58-63A49.24,49.24,0,0,1,59.44,86.63c-1.31-3.22-5.68-16.17,1.25-33.71,0,0,10.7-3.43,35,13.06a120.75,120.75,0,0,1,63.78,0c24.32-16.48,35-13.06,35-13.06,6.95,17.54,2.58,30.49,1.27,33.71a49.16,49.16,0,0,1,13.09,34.18c0,48.94-29.78,59.71-58.16,62.86,4.57,3.93,8.65,11.71,8.65,23.59,0,17-.16,30.77-.16,34.95,0,3.41,2.29,7.37,8.76,6.13A127.41,127.41,0,0,0,127.6.08Z"/></svg>