<svg xmlns="http://www.w3.org/2000/svg" xmlns:xlink="http://www.w3.org/1999/xlink" viewBox="0 0 533 534"><defs><style>.cls-1{isolation:isolate;}.cls-2{fill:#e84228;}.cls-3{fill:#413c39;}.cls-4,.cls-5,.cls-6{mix-blend-mode:multiply;}.cls-4{fill:url(#linear-gradient);}.cls-5{fill:url(#linear-gradient-2);}.cls-6{fill:url(#linear-gradient-3);}</style><linearGradient id="linear-gradient" x1="5368.7" y1="6038.37" x2="5368.7" y2="6116.96" gradientTransform="translate(-5157.08 -5801.05)" gradientUnits="userSpaceOnUse"><stop offset="0" stop-color="#413c39" stop-opacity="0"/><stop offset="0.1" stop-color="#474240" stop-opacity="0.04"/><stop offset="0.25" stop-color="#585451" stop-opacity="0.15"/><stop offset="0.45" stop-color="#74716e" stop-opacity="0.34"/><stop offset="0.68" stop-color="#9b9896" stop-opacity="0.59"/><stop offset="0.93" stop-color="#cccac9" stop-opacity="0.91"/><stop offset="1" stop-color="#d9d8d7"/></linearGradient><linearGradient id="linear-gradient-2" x1="5223.57" y1="6202.65" x2="5223.57" y2="6281.23" gradientTransform="translate(-5966.25 5545.14) rotate(-90)" xlink:href="#linear-gradient"/><linearGradient id="linear-gradient-3" x1="5069.97" y1="6073.31" x2="5069.97" y2="6151.89" gradientTransform="translate(5390.56 6369.61) rotate(180)" xlink:href="#linear-gradient"/></defs><title>icon-chatwork</title><g class="cls-1"><g id="レイヤー_1" data-name="レイヤー 1"><path class="cls-2" d="M497.67,274.42a119.29,119.29,0,0,0-80.09-35H347.9a54.76,54.76,0,0,0,54.79,54.7h17.2v0a65.38,65.38,0,1,1-71.93,72h0l-.11-71.87V239.47H293.27V294.2H239V179.76c.13-36.47-10.21-65.31-34.92-90A119.85,119.85,0,1,0,114.7,294.2h64.13c-36.47-.12-65.31,10.21-90,34.94-46.7,46.7-46.7,122.71,0,169.46a119.8,119.8,0,0,0,204.46-80.09v-64.6c-.12,36.48,10.21,65.31,34.93,90,46.7,46.7,122.72,46.7,169.47,0A120,120,0,0,0,497.67,274.42ZM420,294.1V294l0,0ZM112.25,239.67l0,0,0-.07Zm17.32-.18h-17.2v0a65.37,65.37,0,1,1,71.93-72h0V294.2A54.67,54.67,0,0,0,129.57,239.49ZM238.7,421l-.07,0h.11Zm-.14-17.36v17.2h0a65.38,65.38,0,1,1-72-71.92v0H293.27A54.67,54.67,0,0,0,238.56,403.63Z"/><path class="cls-3" d="M443.45,35.06A119.79,119.79,0,0,0,239,115.15v69.57A54.67,54.67,0,0,0,293.7,130V112.84h0a65.38,65.38,0,1,1,72,71.91v0H239v54.74H353.44c36.48.12,65.31-10.21,90-34.94C490.15,157.83,490.15,81.81,443.45,35.06ZM293.53,112.72l0,0,.07,0Z"/><rect class="cls-4" x="184.26" y="239.42" width="54.74" height="54.77"/><rect class="cls-5" x="238.5" y="294.19" width="54.77" height="54.75"/><rect class="cls-6" x="293.27" y="239.42" width="54.63" height="54.77"/></g></g></svg>